<svg width="27" height="27" viewBox="0 0 27 27" fill="none" xmlns="http://www.w3.org/2000/svg">
<path d="M22.8834 13.3315C22.8834 7.35547 18.2354 3.26933 13.0766 3.26933C7.96894 3.26933 3.26988 7.25331 3.26988 13.3825C2.60588 13.7401 2.19727 14.4551 2.19727 15.2724V17.4176C2.19727 18.6434 3.16772 19.6139 4.34249 19.6139H5.46618V12.9739C5.46618 8.73454 8.83725 5.36347 13.0766 5.36347C17.316 5.36347 20.6871 8.73454 20.6871 12.9739V20.6865H12.004V22.8828H20.6871C21.9129 22.8828 22.8834 21.9124 22.8834 20.6865V19.3585C23.5474 19.0521 23.956 18.3881 23.956 17.5708V15.0681C23.956 14.3019 23.5474 13.6379 22.8834 13.3315ZM8.73509 14.1487C8.73509 13.5868 9.19479 13.0761 9.80771 13.0761C10.4206 13.0761 10.8803 13.5868 10.8803 14.1487C10.8803 14.7616 10.4206 15.2724 9.80771 15.2724C9.19479 15.2724 8.73509 14.7616 8.73509 14.1487ZM15.2729 14.1487C15.2729 13.5868 15.7326 13.0761 16.3455 13.0761C16.9585 13.0761 17.4181 13.5868 17.4181 14.1487C17.4181 14.7616 16.9585 15.2724 16.3455 15.2724C15.7326 15.2724 15.2729 14.7616 15.2729 14.1487ZM19.6144 12.0035C19.1037 8.93885 16.3966 6.53824 13.1277 6.53824C9.80771 6.53824 6.28341 9.29639 6.53879 13.5868C9.24586 12.4631 11.2889 10.0625 11.8508 7.15116C13.2809 10.0115 16.1923 12.0035 19.6144 12.0035Z" fill="#EB2528"/>
</svg>
